<svg xmlns="http://www.w3.org/2000/svg" width="21.678" height="21.517" viewBox="0 0 21.678 21.517"><defs><style>.a{fill:none;stroke:#1d1d1d;stroke-linecap:round;stroke-linejoin:round;stroke-width:1.5px;}</style></defs><g transform="translate(-0.006 -0.083)"><path class="a" d="M11.386,17.15H6.678a.673.673,0,0,0-.673.673v4.036a.673.673,0,0,0,.673.673h4.036a.673.673,0,0,0,.673-.673Z" transform="translate(-0.542 -1.681)"/><path class="a" d="M16.713,17.15H12v4.708a.673.673,0,0,0,.673.673h4.036a.673.673,0,0,0,.673-.673V17.823A.673.673,0,0,0,16.713,17.15Z" transform="translate(-1.16 -1.681)"/><path class="a" d="M13.713,11.15H9.678a.673.673,0,0,0-.673.673v4.708h5.381V11.823a.673.673,0,0,0-.673-.673Z" transform="translate(-0.851 -1.062)"/><path class="a" d="M20.934,20.85V6.859a1.345,1.345,0,0,0-.712-1.187L11.478,1.008a1.345,1.345,0,0,0-1.265,0L1.468,5.671A1.345,1.345,0,0,0,.755,6.859V20.85"/></g></svg>